<svg xmlns="http://www.w3.org/2000/svg" viewBox="0 0 100 100"><path d="M96.37,26.7,85.54,70a2.76,2.76,0,0,1-2.6,2.06H28.76A2.76,2.76,0,0,1,26.16,70L15.87,28.75H7.2a2.71,2.71,0,1,1,0-5.41H18a2.77,2.77,0,0,1,2.6,2.05l.21.65L31,66.68H80.88L91,26l.22-.65a2.68,2.68,0,1,1,5.2,1.31Z"></path><path d="M34.29,77.51A10.84,10.84,0,1,0,45.12,88.35,10.87,10.87,0,0,0,34.29,77.51Zm0,16.25a5.42,5.42,0,1,1,5.41-5.41A5.36,5.36,0,0,1,34.29,93.76Z"></path><path d="M77.63,77.51A10.84,10.84,0,1,0,88.46,88.35,10.87,10.87,0,0,0,77.63,77.51Zm0,16.25A5.42,5.42,0,1,1,83,88.35,5.36,5.36,0,0,1,77.63,93.76Z"></path><path d="M74.92,26a2.65,2.65,0,0,1-.76,2L57.91,44.25a2.88,2.88,0,0,1-3.9,0L37.75,28a2.73,2.73,0,0,1,3.8-3.91L53.25,35.8V4.38a2.71,2.71,0,1,1,5.42,0V35.8l11.7-11.71A2.66,2.66,0,0,1,74.92,26Z"></path></svg>