<svg xmlns="http://www.w3.org/2000/svg" viewBox="0 0 100 100"><path d="M90.14,76.4,76.43,62.71a35.84,35.84,0,0,0,4.9-18.2A36.7,36.7,0,1,0,44.63,81.2a35.75,35.75,0,0,0,17.91-4.69L76.24,90.2a9.9,9.9,0,0,0,13.9,0A9.76,9.76,0,0,0,90.14,76.4Zm-45.51-.09a31.81,31.81,0,1,1,31.8-31.8A31.87,31.87,0,0,1,44.63,76.31Zm42,10.47a5,5,0,0,1-3.42,1.47,4.56,4.56,0,0,1-3.42-1.47l-13-13a35.16,35.16,0,0,0,6.94-6.84L86.61,79.84A5,5,0,0,1,86.61,86.78Z"></path><path d="M47.07,20a2.41,2.41,0,0,1-2.44,2.45,22.06,22.06,0,0,0-22,22,2.45,2.45,0,0,1-4.9,0A26.9,26.9,0,0,1,44.63,17.59,2.41,2.41,0,0,1,47.07,20Z"></path></svg>